<?xml version="1.0" encoding="utf-8"?>
<!-- Generator: Adobe Illustrator 27.5.0, SVG Export Plug-In . SVG Version: 6.00 Build 0)  -->
<svg version="1.1" xmlns="http://www.w3.org/2000/svg" xmlns:xlink="http://www.w3.org/1999/xlink" x="0px" y="0px"
	 viewBox="0 0 1513 720" style="enable-background:new 0 0 1513 720;" xml:space="preserve">
<style type="text/css">
	.st0{fill:#0099CD;}
	.st1{fill:#FFFFFF;}
	.st2{font-family:'Impact';}
	.st3{font-size:338.6887px;}
	.st4{letter-spacing:3;}
	.st5{font-size:96px;}
</style>
<g id="katman_1">
</g>
<g id="katman_3">
</g>
<g id="katman_2">
	<path class="st0" d="M675.22,360c1.51-107.05-43.87-210.24-124.87-273.87c-5.52-4.34-8.82-10.85-9.55-18.01
		c-1.88-18.22-10.65-35.39-26.71-44.81C476.54,1.36,432.9,8.56,393.09,16.79c-2.43,0.5-4.92,0.58-7.38,0.25
		C192.52-8.23,0.47,141.47,0,358.51c0.23,101.38,42.31,188.01,106.72,249.03c1.63,1.54,2.15,3.93,1.36,6.07
		c-11.15,30.33-12.27,63.64,17.04,82.77c38.87,22.75,85.65,14.34,127.16,7.79c9.01-1.66,19.12-3.67,29.65-6.18
		c1.41-0.34,2.88-0.38,4.3-0.14c60.21,10.37,121.18-0.01,182.12-25.62C592.06,622.93,677.14,498.98,675.22,360z M433.63,21.76
		c28.38-2.77,54.35-0.14,74.72,11.16c10.13,5.87,16.11,15.43,19.91,25.89c4.49,12.37,2.54,12.37-7.84,6.35
		c-14.56-8.44-32.15-18.16-49.29-25c-12.55-5.27-25.22-9.61-37.96-13.19C430.35,26.19,430.71,22.05,433.63,21.76z M112.39,587.99
		C55.22,530.59,18.36,451.1,18.33,358.51c0.09-183.49,144.6-315.55,305.7-325.84c2.6-0.17,3.35,3.48,0.9,4.36
		c-37.58,13.42-74.11,29.85-110.14,47.3c-59.24,26.92-117.91,78.41-97.84,153.11c11.03,43.15,36.73,79.1,63.15,112.92
		c22.78,28.88,54.08,60.38,79.45,85.75c12.72,12.72,5.77,14.39-1.95,19.51c-45.31,30.11-92.07,68.09-125.47,113.58
		c-3.81,5.2-7.68,11.11-11.35,17.48C119,589.8,114.9,590.5,112.39,587.99z M236.27,688.82c-36.7,5.82-74.91,6.55-100.63-7.88
		c-0.53-0.3-1.04-0.63-1.53-1c-16.61-12.67-20.32-31.66-12.51-49.13c3.29-7.36,3.66-6.07,8.7-2.84
		c36.66,23.5,67.54,44.73,106.24,57.38C238.33,685.94,238.13,688.52,236.27,688.82z M308.13,672.03c-6.95,2.03-14.7,4.19-22.94,6.34
		c-1.64,0.43-3.38,0.48-5.04,0.14c-53.08-10.85-102.91-34.83-144.57-69.34c-2.11-1.75-2.68-4.91-1.33-7.33
		c4.31-7.7,8.94-14.91,13.11-21.13c31.87-43.9,71.98-82.15,116.09-113.36c14.34-10.15,13.51-11.06,27.32,3.9
		c19.97,21.62,41.28,44.52,58.54,68.3C395.44,603.8,384.99,647.01,308.13,672.03z M465.15,661.02
		c-43.05,17.84-87.58,25.31-131.1,23.9c-2.06-0.07-2.64-2.89-0.76-3.74c37.38-16.91,66.38-44.49,54.82-91.34
		c-6.09-22.65-17.94-41.47-30.26-59.14c-16.17-22.48-33.9-41.9-52.19-63.15c-13.28-15.43-18.16-18.49-9.03-23.64
		c8.88-5.02,28.06-12.99,37.08-17.56c70.27-34.78,151.53-55.21,229.43-49.2c3.79,0.29,7.15-2.46,7.67-6.38
		c0.58-4.31-2.49-8.32-6.66-8.59c-39.5-2.62-77.43,2.96-115.89,12.05c-57.43,13.57-106.75,36.5-155.54,57.97
		c-9.25,4.07-11.63,7.72-23.77-4.42c-96.99-96.99-238.86-242.54-48.71-331.44c36.3-17.29,92-44.17,147.48-60.79
		c4.83-1.45,9.93-1.8,14.94-1.18c27.67,3.38,55.36,10.4,82.48,21.63c17.65,6.94,35,14.98,50.64,25.76
		c19.22,13.24,11.36,17.3,5.78,26.02c-0.38,0.59-0.77,1.17-1.17,1.75c-4.37,6.57-12.81,17.84-18.62,17.88
		c-1.18,0.01-2.27,0.48-3.12,1.24c-1.44,1.28-1.85,3.49-0.96,5.19c2.65,5.07,13.8-2.72,18.32-5.61c6.41-4.42,11.6-10.17,15.58-16.74
		c4.35-7.18,4.41-15.48,20.2-3.23c73.99,57.42,117.66,153,116.76,250.25C669.81,491.1,583.3,614.58,465.15,661.02z"/>
	<text transform="matrix(1 0 0 1 793.6755 428.1504)" class="st1 st2 st3 st4">spes</text>
	<text transform="matrix(1 0 0 1 892.5924 560.3748)" class="st0 st2 st5">WEB DESIGN</text>
</g>
</svg>
