<?xml version="1.0" encoding="UTF-8" standalone="no"?>
<!-- Created with Inkscape (http://www.inkscape.org/) -->

<svg
   version="1.1"
   id="svg2"
   width="1706.6667"
   height="960"
   viewBox="0 0 1706.6667 960"
   sodipodi:docname="spess2.ai"
   xmlns:inkscape="http://www.inkscape.org/namespaces/inkscape"
   xmlns:sodipodi="http://sodipodi.sourceforge.net/DTD/sodipodi-0.dtd"
   xmlns="http://www.w3.org/2000/svg"
   xmlns:svg="http://www.w3.org/2000/svg">
  <defs
     id="defs6">
    <linearGradient
       x1="0"
       y1="0"
       x2="1"
       y2="0"
       gradientUnits="userSpaceOnUse"
       gradientTransform="matrix(1280,0,0,-1280,0,360)"
       spreadMethod="pad"
       id="linearGradient26">
      <stop
         style="stop-opacity:1;stop-color:#1a1a1a"
         offset="0"
         id="stop22" />
      <stop
         style="stop-opacity:1;stop-color:#333333"
         offset="1"
         id="stop24" />
    </linearGradient>
    <clipPath
       clipPathUnits="userSpaceOnUse"
       id="clipPath36">
      <path
         d="M 0,720 H 1280 V 0 H 0 Z"
         id="path34" />
    </clipPath>
  </defs>
  <sodipodi:namedview
     id="namedview4"
     pagecolor="#ffffff"
     bordercolor="#000000"
     borderopacity="0.25"
     inkscape:showpageshadow="2"
     inkscape:pageopacity="0.0"
     inkscape:pagecheckerboard="0"
     inkscape:deskcolor="#d1d1d1" />
  <g
     id="g8"
     inkscape:groupmode="layer"
     inkscape:label="spess2"
     transform="matrix(1.3333333,0,0,-1.3333333,0,960)">
    <g
       id="g10">
      <g
         id="g12">
        <g
           id="g18">
          <g
             id="g20">
            <path
               d="M 0,0 H 1280 V 720 H 0 Z"
               style="fill:url(#linearGradient26);stroke:none"
               id="path28" />
          </g>
        </g>
      </g>
    </g>
    <g
       id="g30">
      <g
         id="g32"
         clip-path="url(#clipPath36)">
        <g
           id="g38"
           transform="translate(702.356,215.7474)">
          <path
             d="m 0,0 c -22.061,-9.141 -44.878,-12.971 -67.181,-12.247 -1.056,0.035 -1.35,1.482 -0.388,1.917 19.155,8.665 34.017,22.797 28.092,46.806 -3.12,11.606 -9.195,21.251 -15.507,30.303 -8.288,11.519 -17.372,21.474 -26.744,32.358 -6.806,7.905 -9.303,9.474 -4.628,12.116 4.553,2.572 14.379,6.658 19,9 36.01,17.822 77.65,28.292 117.568,25.21 1.942,-0.15 3.662,1.26 3.931,3.268 0.297,2.209 -1.274,4.261 -3.412,4.402 -20.24,1.343 -39.678,-1.518 -59.386,-6.176 -29.427,-6.954 -54.701,-18.704 -79.701,-29.704 -4.738,-2.085 -5.957,-3.957 -12.181,2.266 -49.703,49.703 -122.399,124.285 -24.959,169.837 18.602,8.86 47.144,22.632 75.575,31.151 2.477,0.743 5.086,0.92 7.653,0.607 14.177,-1.731 28.371,-5.327 42.265,-11.083 9.046,-3.555 17.726,-7.996 25.949,-13.198 4.411,-2.791 5.824,-8.863 2.96,-13.333 -0.194,-0.302 -0.394,-0.601 -0.6,-0.894 -2.241,-3.368 -6.566,-9.141 -9.539,-9.162 -0.605,-0.005 -1.162,-0.245 -1.6,-0.634 -0.739,-0.655 -0.951,-1.788 -0.492,-2.662 1.36,-2.596 7.073,1.393 9.388,2.875 3.283,2.264 5.945,5.212 7.982,8.576 2.228,3.68 7.114,4.407 10.351,1.656 36.573,-31.074 60.291,-78.399 59.83,-128.237 C 104.874,87.073 60.546,23.798 0,0 m -80.459,-5.638 c -3.559,-1.04 -7.533,-2.149 -11.755,-3.247 -0.843,-0.219 -1.73,-0.246 -2.584,-0.072 -27.199,5.563 -52.735,17.848 -74.081,35.534 -1.08,0.895 -1.375,2.514 -0.681,3.756 2.208,3.947 4.58,7.639 6.717,10.828 16.33,22.497 36.885,42.096 59.487,58.092 7.349,5.2 6.92,5.666 14,-2 10.231,-11.078 21.154,-22.813 30,-35 C -35.72,29.322 -41.074,7.182 -80.459,-5.638 m -36.827,-8.606 c -18.805,-2.983 -38.385,-3.358 -51.566,4.037 -0.272,0.152 -0.535,0.325 -0.783,0.513 -8.511,6.493 -10.414,16.226 -6.409,25.176 1.688,3.771 1.875,3.108 4.457,1.454 18.787,-12.04 34.608,-22.919 54.442,-29.403 0.916,-0.3 0.811,-1.626 -0.141,-1.777 m -63.478,51.67 c -29.296,29.411 -48.182,70.144 -48.201,117.591 0.045,94.028 74.097,161.697 156.651,166.969 1.333,0.085 1.717,-1.784 0.459,-2.233 -19.255,-6.878 -37.973,-15.294 -56.439,-24.24 -30.358,-13.798 -60.423,-40.181 -50.137,-78.46 5.654,-22.111 18.822,-40.535 32.361,-57.862 11.675,-14.799 27.714,-30.938 40.714,-43.938 6.519,-6.52 2.955,-7.372 -1,-10 -23.218,-15.431 -47.181,-34.889 -64.292,-58.204 -1.954,-2.664 -3.937,-5.692 -5.815,-8.959 -0.916,-1.595 -3.017,-1.953 -4.301,-0.664 M -16.15,327.575 c 14.543,1.421 27.851,0.071 38.29,-5.72 5.19,-3.01 8.254,-7.908 10.201,-13.265 2.303,-6.337 1.303,-6.337 -4.015,-3.256 -7.462,4.323 -16.477,9.308 -25.258,12.809 -6.43,2.703 -12.923,4.926 -19.452,6.758 -1.45,0.407 -1.265,2.528 0.234,2.674 M 107.644,154.253 c 0.774,54.857 -22.478,107.733 -63.989,140.34 -2.829,2.222 -4.518,5.562 -4.896,9.23 -0.961,9.338 -5.458,18.138 -13.687,22.963 -19.234,11.243 -41.599,7.554 -61.998,3.338 -1.246,-0.257 -2.522,-0.295 -3.783,-0.13 -98.993,12.953 -197.407,-63.761 -197.647,-174.975 0.116,-51.952 21.68,-96.34 54.687,-127.613 0.834,-0.79 1.101,-2.014 0.698,-3.11 -5.714,-15.54 -6.29,-32.612 8.734,-42.416 19.918,-11.657 43.891,-7.35 65.161,-3.994 4.617,0.849 9.796,1.879 15.192,3.167 0.722,0.173 1.473,0.197 2.205,0.071 30.852,-5.314 62.093,0.005 93.323,13.129 63.391,25.267 106.985,88.781 106,160"
             style="fill:#00a2b4;fill-opacity:1;fill-rule:nonzero;stroke:none"
             id="path40" />
        </g>
      </g>
    </g>
  </g>
</svg>
